<svg width="430" height="483" viewBox="0 0 430 483" fill="none" xmlns="http://www.w3.org/2000/svg">
<path d="M316.935 126.617L307.203 88.3462L293.516 34.5369L292.74 31.4994V31.4919L287.329 10.2145C286.438 6.73105 284.203 3.74308 281.112 1.90602C278.021 0.0689715 274.328 -0.467132 270.843 0.415335L234.885 9.55771L10.2144 66.7031C6.73099 67.5935 3.74302 69.8293 1.90598 72.92C0.0689455 76.0106 -0.467132 79.7038 0.415355 83.1892L8.16968 113.684L27.8723 191.144L35.2834 220.287L35.6638 221.78H37.3059L36.9251 220.287L29.8427 192.42V192.413L9.28917 111.616L1.96012 82.8011C1.18153 79.7244 1.65495 76.4645 3.27651 73.7363C4.89808 71.0081 7.53542 69.0344 10.6102 68.248L234.811 11.222L271.231 1.96025C274.308 1.18165 277.568 1.65501 280.296 3.27653C283.024 4.89805 284.998 7.53535 285.784 10.61L291.531 33.1936L292.307 36.2609L305.606 88.5552L315.286 126.617L315.689 128.214H317.346L316.935 126.617Z" fill="white"/>
<path d="M75.1456 179.773C96.3965 179.773 113.624 162.545 113.624 141.295C113.624 120.044 96.3965 102.816 75.1456 102.816C53.8947 102.816 36.6675 120.044 36.6675 141.295C36.6675 162.545 53.8947 179.773 75.1456 179.773Z" fill="#6C63FF"/>
<path d="M162.433 126.617L164.277 128.214H134.976C131.802 128.218 128.759 129.48 126.515 131.724C124.271 133.969 123.009 137.011 123.005 140.185V231.504L122.58 253.125L103.855 236.378L102.101 236.826L88.2196 224.579C86.1761 222.773 83.5429 221.778 80.8162 221.78H44.2915L44.8512 220.287L52.15 200.786L93.5334 90.1448L97.7875 78.7784C98.049 78.0797 98.4757 77.4547 99.0311 76.9566C99.5865 76.4586 100.254 76.1023 100.977 75.9183C101.7 75.7343 102.457 75.7279 103.183 75.8997C103.909 76.0716 104.582 76.4165 105.146 76.9051L132.991 101.063L149.38 115.288L162.433 126.617Z" fill="#FFCD77"/>
<path d="M284.262 126.618L286.113 128.215H196.45L197.055 126.618L216.153 76.204C216.415 75.5077 216.841 74.885 217.396 74.3887C217.95 73.8924 218.616 73.5373 219.337 73.3534C220.058 73.1695 220.812 73.1623 221.536 73.3325C222.261 73.5026 222.933 73.8451 223.497 74.3308L261.462 107.004L263.648 108.878L284.262 126.618Z" fill="#FFCD77"/>
<path d="M319.018 142.282C315.521 142.28 312.071 143.089 308.94 144.646C305.808 146.203 303.081 148.465 300.972 151.256C298.709 150.282 296.239 149.885 293.785 150.101C291.331 150.317 288.968 151.14 286.91 152.494C284.852 153.849 283.163 155.693 281.993 157.862C280.824 160.031 280.212 162.456 280.211 164.92H341.656C341.656 161.947 341.07 159.003 339.933 156.257C338.795 153.51 337.128 151.015 335.026 148.913C332.923 146.811 330.428 145.143 327.681 144.005C324.935 142.868 321.991 142.282 319.018 142.282Z" fill="#FFCD77"/>
<path d="M403.896 126.617H134.976C131.95 126.622 129.013 127.637 126.628 129.499C124.244 131.362 122.549 133.967 121.811 136.901V136.909C121.544 137.98 121.408 139.081 121.408 140.185V253.849L122.281 254.618L123.005 255.26V140.185C123.009 137.011 124.271 133.969 126.515 131.724C128.759 129.48 131.802 128.218 134.976 128.214H403.896C407.07 128.216 410.114 129.478 412.358 131.723C414.603 133.967 415.865 137.011 415.867 140.185V278.5H416.628C416.907 278.497 417.186 278.51 417.464 278.537V140.185C417.459 136.588 416.028 133.14 413.484 130.597C410.941 128.054 407.493 126.622 403.896 126.617Z" fill="#F59E0B"/>
<path d="M184.409 230.892C204.543 230.892 220.864 214.57 220.864 194.437C220.864 174.303 204.543 157.981 184.409 157.981C164.276 157.981 147.954 174.303 147.954 194.437C147.954 214.57 164.276 230.892 184.409 230.892Z" fill="#6C63FF"/>
<path d="M404.194 278.499H154.156C151.066 278.49 148.084 277.364 145.76 275.328L140.147 270.38L141.006 269.141L142.558 266.902L209.95 169.873L216.869 159.91C217.294 159.297 217.862 158.796 218.524 158.45C219.185 158.104 219.921 157.923 220.667 157.923C221.414 157.923 222.149 158.104 222.811 158.45C223.472 158.796 224.04 159.297 224.466 159.91L245.497 190.188V190.195L257.871 208.01L287.41 250.535L332.212 186.583C332.638 185.973 333.205 185.475 333.865 185.131C334.525 184.787 335.259 184.607 336.003 184.607C336.747 184.607 337.481 184.787 338.141 185.131C338.801 185.475 339.368 185.973 339.794 186.583L368.535 227.601L370.184 229.959L403.149 277.007L404.194 278.499Z" fill="#F59E0B"/>
<path d="M270.635 180.081C266.32 180.078 262.064 181.076 258.2 182.997C254.337 184.918 250.972 187.71 248.371 191.152C245.578 189.95 242.531 189.461 239.503 189.728C236.475 189.994 233.56 191.009 231.021 192.68C228.482 194.351 226.397 196.627 224.955 199.303C223.512 201.979 222.757 204.971 222.756 208.011H298.565C298.565 204.343 297.842 200.711 296.439 197.322C295.035 193.934 292.978 190.855 290.384 188.261C287.791 185.668 284.712 183.611 281.323 182.207C277.935 180.803 274.303 180.081 270.635 180.081Z" fill="white"/>
<path d="M140.096 268.335L130.812 260.155L130.789 260.14L130.759 260.118L130.737 260.096C130.446 259.887 130.155 259.67 129.871 259.446C129.797 259.394 129.729 259.342 129.662 259.29C129.625 259.26 129.595 259.237 129.558 259.207C129.543 259.2 129.535 259.185 129.52 259.178C129.311 259.013 129.095 258.842 128.886 258.67C128.782 258.595 128.685 258.513 128.58 258.431C128.297 258.2 128.013 257.961 127.729 257.722C127.431 257.469 127.132 257.215 126.834 256.954C126.826 256.946 126.811 256.939 126.804 256.931C126.744 256.879 126.692 256.827 126.632 256.782C126.348 256.528 126.065 256.274 125.781 256.006C125.543 255.789 125.304 255.565 125.072 255.349C124.856 255.148 124.639 254.946 124.431 254.73L124.386 254.685C124.229 254.536 124.072 254.379 123.908 254.215C123.751 254.065 123.602 253.909 123.453 253.752C123.296 253.603 123.147 253.446 123.005 253.289L122.886 253.17L122.848 253.132L121.408 251.856V253.849L122.281 254.618L123.005 255.259L138.342 268.783L139.782 270.059L140.148 270.38L140.491 269.88L141.006 269.141L140.096 268.335ZM362.99 277.007C363.013 277.5 363.05 278 363.087 278.5H415.867V277.007H362.99ZM140.096 268.335L130.812 260.155L130.789 260.14L130.759 260.118L130.737 260.096C130.446 259.887 130.155 259.67 129.871 259.446C129.797 259.394 129.729 259.342 129.662 259.29C129.625 259.26 129.595 259.237 129.558 259.207C129.543 259.2 129.535 259.185 129.52 259.178C129.311 259.013 129.095 258.842 128.886 258.67C128.782 258.595 128.685 258.513 128.58 258.431C128.297 258.2 128.013 257.961 127.729 257.722C127.431 257.469 127.132 257.215 126.834 256.954C126.826 256.946 126.811 256.939 126.804 256.931C126.744 256.879 126.692 256.827 126.632 256.782C126.348 256.528 126.065 256.274 125.781 256.006C125.543 255.789 125.304 255.565 125.072 255.349C124.856 255.148 124.639 254.946 124.431 254.73L124.386 254.685C124.229 254.536 124.072 254.379 123.908 254.215C123.751 254.065 123.602 253.909 123.453 253.752C123.296 253.603 123.147 253.446 123.005 253.289L122.886 253.17L122.848 253.132L121.408 251.856V253.849L122.281 254.618L123.005 255.259L138.342 268.783L139.782 270.059L140.148 270.38L140.491 269.88L141.006 269.141L140.096 268.335ZM403.149 277.007H362.99C363.013 277.5 363.05 278 363.087 278.5H404.194L403.149 277.007ZM140.096 268.335L130.812 260.155L130.789 260.14L130.759 260.118L130.737 260.096C130.446 259.887 130.155 259.67 129.871 259.446C129.797 259.394 129.729 259.342 129.662 259.29C129.625 259.26 129.595 259.237 129.558 259.207C129.543 259.2 129.535 259.185 129.52 259.178C129.311 259.013 129.095 258.842 128.886 258.67C128.782 258.595 128.685 258.513 128.58 258.431C128.297 258.2 128.013 257.961 127.729 257.722C127.431 257.469 127.132 257.215 126.834 256.954C126.826 256.946 126.811 256.939 126.804 256.931C126.744 256.879 126.692 256.827 126.632 256.782C126.348 256.528 126.065 256.274 125.781 256.006C125.543 255.789 125.304 255.565 125.072 255.349C124.856 255.148 124.639 254.946 124.431 254.73L124.386 254.685C124.229 254.536 124.072 254.379 123.908 254.215C123.751 254.065 123.602 253.909 123.453 253.752C123.296 253.603 123.147 253.446 123.005 253.289L122.886 253.17L122.848 253.132L121.408 251.856V253.849L122.281 254.618L123.005 255.259L138.342 268.783L139.782 270.059L140.148 270.38L140.491 269.88L141.006 269.141L140.096 268.335ZM103.855 236.378L89.2046 223.459C86.8887 221.414 83.9053 220.286 80.8159 220.287H36.925L37.3058 221.78H80.8159C83.5426 221.778 86.1758 222.773 88.2192 224.578L102.101 236.825L121.408 253.849V251.856L103.855 236.378ZM417.464 277.037C417.188 277.015 416.912 277.007 416.628 277.007H154.156C151.633 277.01 149.184 276.158 147.208 274.589C147.051 274.47 146.902 274.343 146.753 274.208L141.544 269.611L141.006 269.141L140.096 268.335L130.812 260.155L130.789 260.14L130.759 260.118L130.737 260.096L124.535 254.618L123.005 253.267L122.886 253.17L122.848 253.132L121.408 251.856L103.855 236.378L89.2046 223.459C86.8887 221.414 83.9053 220.286 80.8159 220.287L16.6029 220.287C13.2395 220.292 10.0151 221.63 7.63683 224.008C5.25852 226.387 3.92029 229.611 3.91553 232.975V470.303C3.92029 473.666 5.25852 476.891 7.63683 479.269C10.0151 481.647 13.2395 482.985 16.6029 482.99H416.628C419.991 482.985 423.216 481.647 425.594 479.269C427.972 476.891 429.311 473.666 429.315 470.303V289.695C429.31 286.476 428.083 283.38 425.884 281.03C423.684 278.681 420.675 277.254 417.464 277.037ZM427.823 470.303C427.819 473.271 426.639 476.116 424.54 478.215C422.441 480.313 419.596 481.494 416.628 481.498H16.6029C13.6349 481.494 10.7896 480.313 8.69099 478.215C6.59235 476.116 5.41175 473.271 5.40814 470.303V232.974C5.41175 230.007 6.59235 227.161 8.69099 225.063C10.7896 222.964 13.6349 221.783 16.6029 221.78H80.8159C83.5426 221.778 86.1758 222.773 88.2192 224.578L102.101 236.825L121.408 253.849L122.281 254.618L123.005 255.259L138.342 268.783L139.782 270.059L140.148 270.38L145.76 275.328C148.084 277.364 151.066 278.491 154.156 278.5H416.628C416.907 278.497 417.186 278.51 417.464 278.537C420.279 278.75 422.909 280.017 424.83 282.086C426.75 284.154 427.819 286.872 427.823 289.694L427.823 470.303ZM140.096 268.335L130.812 260.155L130.789 260.14L130.759 260.118L130.737 260.096C130.446 259.887 130.155 259.67 129.871 259.446C129.797 259.394 129.729 259.342 129.662 259.29C129.625 259.26 129.595 259.237 129.558 259.207C129.543 259.2 129.535 259.185 129.52 259.178C129.311 259.013 129.095 258.842 128.886 258.67C128.782 258.595 128.685 258.513 128.58 258.431C128.297 258.2 128.013 257.961 127.729 257.722C127.431 257.469 127.132 257.215 126.834 256.954C126.826 256.946 126.811 256.939 126.804 256.931C126.744 256.879 126.692 256.827 126.632 256.782C126.348 256.528 126.065 256.274 125.781 256.006C125.543 255.789 125.304 255.565 125.072 255.349C124.856 255.148 124.639 254.946 124.431 254.73L124.386 254.685C124.229 254.536 124.072 254.379 123.908 254.215C123.751 254.065 123.602 253.909 123.453 253.752C123.296 253.603 123.147 253.446 123.005 253.289L122.886 253.17L122.848 253.132L121.408 251.856V253.849L122.281 254.618L123.005 255.259L138.342 268.783L139.782 270.059L140.148 270.38L140.491 269.88L141.006 269.141L140.096 268.335ZM362.99 277.007C363.013 277.5 363.05 278 363.087 278.5H415.867V277.007H362.99ZM140.096 268.335L130.812 260.155L130.789 260.14L130.759 260.118L130.737 260.096C130.446 259.887 130.155 259.67 129.871 259.446C129.797 259.394 129.729 259.342 129.662 259.29C129.625 259.26 129.595 259.237 129.558 259.207C129.543 259.2 129.535 259.185 129.52 259.178C129.311 259.013 129.095 258.842 128.886 258.67C128.782 258.595 128.685 258.513 128.58 258.431C128.297 258.2 128.013 257.961 127.729 257.722C127.431 257.469 127.132 257.215 126.834 256.954C126.826 256.946 126.811 256.939 126.804 256.931C126.744 256.879 126.692 256.827 126.632 256.782C126.348 256.528 126.065 256.274 125.781 256.006C125.543 255.789 125.304 255.565 125.072 255.349C124.856 255.148 124.639 254.946 124.431 254.73L124.386 254.685C124.229 254.536 124.072 254.379 123.908 254.215C123.751 254.065 123.602 253.909 123.453 253.752C123.296 253.603 123.147 253.446 123.005 253.289L122.886 253.17L122.848 253.132L121.408 251.856V253.849L122.281 254.618L123.005 255.259L138.342 268.783L139.782 270.059L140.148 270.38L140.491 269.88L141.006 269.141L140.096 268.335ZM140.096 268.335L130.812 260.155L130.789 260.14L130.759 260.118L130.737 260.096C130.446 259.887 130.155 259.67 129.871 259.446C129.797 259.394 129.729 259.342 129.662 259.29C129.625 259.26 129.595 259.237 129.558 259.207C129.543 259.2 129.535 259.185 129.52 259.178C129.311 259.013 129.095 258.842 128.886 258.67C128.782 258.595 128.685 258.513 128.58 258.431C128.297 258.2 128.013 257.961 127.729 257.722C127.431 257.469 127.132 257.215 126.834 256.954C126.826 256.946 126.811 256.939 126.804 256.931C126.744 256.879 126.692 256.827 126.632 256.782C126.348 256.528 126.065 256.274 125.781 256.006C125.543 255.789 125.304 255.565 125.072 255.349C124.856 255.148 124.639 254.946 124.431 254.73L124.386 254.685C124.229 254.536 124.072 254.379 123.908 254.215C123.751 254.065 123.602 253.909 123.453 253.752C123.296 253.603 123.147 253.446 123.005 253.289L122.886 253.17L122.848 253.132L121.408 251.856V253.849L122.281 254.618L123.005 255.259L138.342 268.783L139.782 270.059L140.148 270.38L140.491 269.88L141.006 269.141L140.096 268.335ZM403.149 277.007H362.99C363.013 277.5 363.05 278 363.087 278.5H404.194L403.149 277.007Z" fill="#F59E0B"/>
<path d="M396.164 473.662H33.3345C30.1846 473.659 27.1647 472.406 24.9374 470.178C22.7101 467.951 21.4572 464.931 21.4536 461.781V246.521C21.4572 243.371 22.7101 240.351 24.9374 238.123C27.1647 235.896 30.1846 234.643 33.3345 234.64C36.1206 234.643 38.7917 235.751 40.7617 237.721C42.7318 239.691 43.84 242.362 43.8431 245.148V447.601C43.8464 450.553 45.0206 453.383 47.108 455.471C49.1954 457.558 52.0256 458.732 54.9777 458.736H394.939C396.628 458.717 398.274 459.264 399.615 460.291C400.957 461.317 401.915 462.763 402.339 464.398C402.813 465.949 402.754 467.613 402.171 469.126C401.589 470.639 400.516 471.914 399.124 472.746C398.242 473.32 397.217 473.638 396.164 473.662Z" fill="white"/>
</svg>
