<svg width="152" height="144" viewBox="0 0 152 144" fill="none" xmlns="http://www.w3.org/2000/svg">
<path d="M139.445 83.5394C138.992 82.9525 138.54 82.3658 138.053 81.7957C130.828 73.0947 120.752 67.5121 109.486 65.9362C98.0187 64.3435 86.6018 67.1097 77.1799 73.7151C61.8567 54.8712 34.1275 51.4009 14.5963 66.1709C13.2551 67.1768 11.9977 68.2497 10.8074 69.3729C9.96911 70.1608 9.1812 70.9824 8.42676 71.8207C8.51057 71.9547 8.59448 72.0721 8.69505 72.2062L61.8735 143.742L63.2146 142.736C66.0311 140.658 131.884 91.6871 133.963 90.128C136.226 88.4179 138.288 86.5235 140.132 84.495C139.914 84.1764 139.68 83.8579 139.445 83.5394Z" fill="#F59E0B"/>
<path d="M142.798 26.5384C135.488 16.8482 124.843 10.6117 112.839 8.93519C101.372 7.34251 89.9548 10.1088 80.5329 16.7141C65.2097 -2.12975 37.4805 -5.60011 17.9492 9.16992C-1.59866 23.9231 -5.80669 51.954 8.42675 71.8206C8.51055 71.9546 8.59447 72.072 8.69504 72.2061L61.8735 143.742L63.2146 142.736C66.0311 140.657 131.884 91.687 133.963 90.1279C136.226 88.4178 138.288 86.5234 140.132 84.4949C154.584 68.6687 156.193 44.2422 142.798 26.5384ZM138.053 81.7956C136.226 83.8578 134.181 85.7523 131.934 87.4454C130.04 88.8873 72.184 131.889 62.5609 139.048L11.3942 70.2111C11.193 69.9429 10.9918 69.6578 10.8073 69.3729C-1.96756 50.9984 2.0393 25.3984 19.9778 11.8355C27.5556 6.11869 36.4411 3.35243 45.2761 3.35243C58.0176 3.35243 70.6249 9.10279 78.8732 20.0336L79.8791 21.3748L81.2202 20.3521C99.712 6.38687 126.15 10.0584 140.132 28.5502C146.905 37.5194 149.772 48.5676 148.23 59.6994C147.073 68.0484 143.536 75.6597 138.053 81.7956Z" fill="white"/>
</svg>
